<svg width="63" height="38" viewBox="0 0 63 38" fill="none" xmlns="http://www.w3.org/2000/svg">
    <path fill-rule="evenodd" clip-rule="evenodd"
        d="M22.5259 6.6636C22.5259 2.98474 19.5567 0 15.8971 0C12.2375 0 9.26843 2.98474 9.26843 6.6636C9.26843 10.3425 12.2375 13.3272 15.8971 13.3272C19.5567 13.3272 22.5259 10.3425 22.5259 6.6636ZM57.8791 19.9908C54.1348 12.1733 52.3551 4.6339 43.5169 5.55301C34.6786 6.47213 28.6022 21.8683 25.8403 23.3226C23.0783 24.777 25.8403 15.9186 20.3163 17.7696C14.7924 19.6206 11.1376 25.8694 9.26849 28.8756C7.39942 31.8819 -10.6177 32.8132 9.26849 35.5392C29.1546 38.2652 49.5797 38.1938 57.8791 35.5392C66.1784 32.8846 61.6234 27.8083 57.8791 19.9908Z"
        fill="#F3F4F6" />
</svg>