<svg width="14" height="20" viewBox="0 0 14 20" fill="none" xmlns="http://www.w3.org/2000/svg">
    <path
        d="M9 12.99L9 19.6C9 19.8209 9.17909 20 9.4 20L10.6 20C10.8209 20 11 19.8209 11 19.6L11 12.99L13.0326 12.99C13.3892 12.99 13.5676 12.5586 13.3151 12.3068L10.2825 9.28178C10.1264 9.12604 9.87364 9.12604 9.71751 9.28178L6.68491 12.3068C6.43244 12.5586 6.61079 12.99 6.9674 12.99L9 12.99ZM7.31509 7.6932C7.56756 7.44136 7.38921 7.01 7.0326 7.01L5 7.01L5 0.399999C5 0.179086 4.82091 -2.10729e-07 4.6 -2.01072e-07L3.4 -1.48619e-07C3.17909 -1.38962e-07 3 0.179087 3 0.399999L3 7.01L0.967397 7.01C0.610793 7.01 0.432436 7.44136 0.684908 7.6932L3.71751 10.7182C3.87364 10.874 4.12636 10.874 4.28249 10.7182L7.31509 7.6932Z"
        fill="#111827" />
</svg>